<svg xmlns="http://www.w3.org/2000/svg" xmlns:xlink="http://www.w3.org/1999/xlink" id="Layer_1" x="0" y="0" enable-background="new 0 0 32 32" version="1.1" viewBox="0 0 32 32" xml:space="preserve"><path fill="#FFF" d="M14,9.5C14,8.7,14.7,8,15.5,8h1C17.3,8,18,8.7,18,9.5v1c0,0.8-0.7,1.5-1.5,1.5h-1c-0.8,0-1.5-0.7-1.5-1.5	V9.5z"/><path fill="#FFF" d="M20,24h-8v-2h2v-6h-2v-2h6v8h2V24z"/><path fill="#FFF" d="M16,0C7.2,0,0,7.2,0,16s7.2,16,16,16s16-7.2,16-16S24.8,0,16,0z M16,29C8.8,29,3,23.2,3,16S8.8,3,16,3	s13,5.8,13,13S23.2,29,16,29z"/></svg>